<svg height="512pt" viewBox="-83 0 512 512" width="512pt" xmlns="http://www.w3.org/2000/svg"><path d="m318.382812 77.964844h-93.167968l-5.03125 25.828125c-.714844 3.660156-3.921875 6.304687-7.65625 6.304687h-80.90625c-3.730469 0-6.9375-2.644531-7.652344-6.304687l-5.03125-25.828125h-90.507812c-10.179688 0-18.429688 8.25-18.429688 18.425781v60.25h326.808594v-60.25c0-10.175781-8.25-18.425781-18.425782-18.425781zm0 0" fill="#d6effb"/><path d="m131.621094 110.097656h80.90625c3.734375 0 6.941406-2.644531 7.65625-6.304687l5.03125-25.828125h-106.277344l5.03125 25.828125c.714844 3.660156 3.921875 6.304687 7.652344 6.304687zm0 0" fill="#5fbee3"/><path d="m220.183594 261.144531c-.714844 3.660157-3.921875 6.304688-7.65625 6.304688h-80.90625c-3.730469 0-6.9375-2.644531-7.652344-6.304688l-5.03125-25.828125h-108.9375v78.675782h326.808594v-78.675782h-111.59375zm0 0" fill="#d6effb"/><path d="m131.621094 267.449219h80.90625c3.734375 0 6.941406-2.644531 7.65625-6.304688l5.03125-25.828125h-106.277344l5.03125 25.828125c.714844 3.660157 3.921875 6.304688 7.652344 6.304688zm0 0" fill="#5fbee3"/><path d="m220.183594 418.496094c-.714844 3.660156-3.921875 6.304687-7.65625 6.304687h-80.90625c-3.730469 0-6.9375-2.644531-7.652344-6.304687l-5.03125-25.828125h-108.9375v60.246093c0 10.179688 8.25 18.429688 18.429688 18.429688h289.953124c10.175782 0 18.429688-8.25 18.429688-18.429688v-60.246093h-111.597656zm0 0" fill="#d6effb"/><path d="m131.621094 424.800781h80.90625c3.734375 0 6.941406-2.644531 7.65625-6.304687l5.03125-25.828125h-106.277344l5.03125 25.828125c.714844 3.660156 3.921875 6.304687 7.652344 6.304687zm0 0" fill="#5fbee3"/><path d="m220.183594 182.46875c-.714844 3.664062-3.921875 6.304688-7.65625 6.304688h-80.90625c-3.730469 0-6.9375-2.640626-7.652344-6.304688l-5.03125-25.828125h-108.9375v78.675781h326.808594v-78.675781h-111.59375zm0 0" fill="#a3d1e7"/><path d="m131.621094 188.773438h80.90625c3.734375 0 6.941406-2.640626 7.65625-6.304688l5.03125-25.828125h-106.277344l5.03125 25.828125c.714844 3.664062 3.921875 6.304688 7.652344 6.304688zm0 0" fill="#5fbee3"/><path d="m220.183594 339.820312c-.714844 3.660157-3.921875 6.304688-7.65625 6.304688h-80.90625c-3.730469 0-6.9375-2.644531-7.652344-6.304688l-5.03125-25.828124h-108.9375v78.675781h326.808594v-78.675781h-111.59375zm0 0" fill="#a3d1e7"/><path d="m131.621094 346.125h80.90625c3.734375 0 6.941406-2.644531 7.65625-6.304688l5.03125-25.828124h-106.277344l5.03125 25.828124c.714844 3.660157 3.921875 6.304688 7.652344 6.304688zm0 0" fill="#5fbee3"/><g fill="#ffd866"><path d="m51.882812 499.238281c0 1.527344 1.234376 2.761719 2.761719 2.761719h50.621094c1.523437 0 2.761719-1.234375 2.761719-2.761719v-27.894531h-56.144532zm0 0"/><path d="m238.78125 499.238281c0 1.527344 1.238281 2.761719 2.761719 2.761719h50.621093c1.527344 0 2.761719-1.234375 2.761719-2.761719v-27.894531h-56.144531zm0 0"/><path d="m114.769531 22.433594c.546875-6.699219-4.742187-12.433594-11.460937-12.433594h-58.527344c-6.71875 0-12.007812 5.734375-11.460938 12.433594l4.527344 55.53125h72.394532zm0 0"/></g><path d="m315.613281 77.964844v-18.46875c0-6.734375-5.457031-12.191406-12.191406-12.191406h-141.835937c-6.734376 0-12.191407 5.457031-12.191407 12.191406v18.46875zm0 0" fill="#ee569e"/><path d="m304.390625 47.304688v-21.121094c0-4.65625-3.773437-8.425782-8.425781-8.425782h-75.210938c-4.652344 0-8.425781 3.769532-8.425781 8.425782v21.121094zm0 0" fill="#c49a6c"/><path d="m280.070312 245.316406h.027344c5.523438 0 9.988282-4.476562 9.988282-10 0-5.523437-4.492188-10-10.015626-10-5.523437 0-10 4.476563-10 10 0 5.523438 4.480469 10 10 10zm0 0"/><path d="m325.613281 68.898438v-9.402344c0-8.25-4.527343-15.453125-11.222656-19.277344v-14.035156c0-10.160156-8.265625-18.425782-18.425781-18.425782h-75.207032c-10.160156 0-18.425781 8.265626-18.425781 18.425782v11.121094h-40.746093c-12.234376 0-22.191407 9.957031-22.191407 22.191406v8.46875h-18.304687l3.644531-44.722656c.488281-5.964844-1.558594-11.914063-5.617187-16.316407-4.058594-4.402343-9.820313-6.925781-15.808594-6.925781h-58.527344c-5.988281 0-11.75 2.523438-15.808594 6.925781-4.058594 4.402344-6.105468 10.351563-5.621094 16.316407l3.648438 44.757812c-15.015625.746094-27 13.195312-27 28.390625v356.523437c0 15.675782 12.753906 28.429688 28.429688 28.429688h13.453124v17.894531c0 7.039063 5.726563 12.761719 12.761719 12.761719h50.621094c7.039063 0 12.761719-5.726562 12.761719-12.761719v-17.894531h110.757812v17.894531c0 7.039063 5.722656 12.761719 12.761719 12.761719h50.621094c7.035156 0 12.761719-5.726562 12.761719-12.761719v-17.894531h13.453124c15.675782 0 28.429688-12.753906 28.429688-28.429688v-356.523437c-.003906-13.175781-9.015625-24.285156-21.199219-27.492187zm-100.398437 313.769531h-205.214844v-58.675781h90.695312l3.457032 17.742187c1.625 8.339844 8.972656 14.394531 17.46875 14.394531h80.90625c8.5 0 15.847656-6.054687 17.472656-14.394531l3.457031-17.742187h93.355469v58.675781zm-12.136719 20-2.363281 12.132812h-77.277344l-2.363281-12.132812zm-102.382813-236.027344 3.457032 17.742187c1.625 8.339844 8.972656 14.394532 17.46875 14.394532h80.90625c8.5 0 15.847656-6.054688 17.472656-14.394532l3.457031-17.742187h93.355469v58.675781h-6.742188c-5.519531 0-10 4.476563-10 10 0 5.523438 4.480469 10 10 10h6.742188v58.675782h-306.8125v-58.675782h90.695312l3.457032 17.742188c1.625 8.339844 8.972656 14.394531 17.46875 14.394531h80.90625c8.5 0 15.847656-6.054687 17.472656-14.394531l3.457031-17.742188h6.617188c5.523437 0 10-4.476562 10-10 0-5.523437-4.476563-10-10-10h-220.074219v-58.675781zm20.378907 0h82.003906l-2.363281 12.132813h-77.277344zm82.003906 157.351563-2.363281 12.132812h-77.277344l-2.363281-12.132812zm-82.003906-78.675782h82.003906l-2.363281 12.132813h-77.277344zm91.253906-217.558594h72.0625v9.546876h-72.0625zm-62.933594 31.738282c0-1.207032.984375-2.1875 2.191407-2.1875h141.835937c1.207031 0 2.191406.980468 2.191406 2.1875v8.46875h-146.21875zm-10 28.46875h63.683594l-2.363281 12.132812h-77.277344l-2.363281-12.132812zm-105.714843-67.484375c.203124-.21875.558593-.480469 1.101562-.480469h58.527344c.542968 0 .898437.261719 1.101562.480469.203125.222656.4375.597656.394532 1.136719l-3.777344 46.347656h-53.960938l-3.78125-46.347656c-.042968-.539063.191406-.914063.394532-1.136719zm-23.679688 75.910156c0-4.644531 3.78125-8.425781 8.429688-8.425781h82.265624l3.457032 17.738281c1.625 8.34375 8.972656 14.398437 17.46875 14.398437h80.90625c8.5 0 15.847656-6.054687 17.472656-14.398437l3.457031-17.738281h84.925781c4.648438 0 8.429688 3.78125 8.429688 8.425781v50.25h-306.8125zm78.027344 395.609375h-36.144532v-10.65625h36.144532zm186.898437 0h-36.144531v-10.65625h36.144531zm41.882813-39.085938c0 4.648438-3.78125 8.429688-8.425782 8.429688h-289.953124c-4.648438 0-8.429688-3.78125-8.429688-8.429688v-50.246093h90.695312l3.457032 17.738281c1.625 8.34375 8.972656 14.398438 17.46875 14.398438h80.90625c8.5 0 15.847656-6.054688 17.472656-14.398438l3.457031-17.738281h93.355469v50.246093zm0 0"/></svg>